<svg width="239" height="198" viewBox="0 0 239 198" fill="none" xmlns="http://www.w3.org/2000/svg">
<g filter="url(#filter0_d_9_9)">
<path d="M117.99 3.35254C119.793 1.80344 122.458 1.80344 124.262 3.35254L132.252 10.2148C133.654 11.4184 135.544 11.8842 137.344 11.4697L147.609 9.10645C149.926 8.57333 152.285 9.81174 153.162 12.0215L157.048 21.8115C157.73 23.5283 159.186 24.8193 160.973 25.2891L171.16 27.9668C173.46 28.5714 174.973 30.7646 174.723 33.1289L173.615 43.6025C173.42 45.4395 174.11 47.2597 175.474 48.5059L183.249 55.6113C185.004 57.2152 185.326 59.8606 184.006 61.8379L178.156 70.5977C177.131 72.1338 176.896 74.0657 177.525 75.8027L181.108 85.708C181.916 87.9438 180.971 90.4351 178.883 91.5723L169.633 96.6104C168.011 97.4939 166.905 99.0958 166.655 100.926L165.224 111.361C164.901 113.717 162.907 115.484 160.53 115.521L149.997 115.683C148.15 115.711 146.426 116.616 145.354 118.12L139.238 126.695C137.857 128.631 135.27 129.269 133.148 128.196L123.747 123.445C122.099 122.612 120.152 122.612 118.503 123.445L109.103 128.196C106.981 129.269 104.394 128.631 103.013 126.695L96.8967 118.12C95.824 116.616 94.1003 115.711 92.2532 115.683L81.7219 115.521C79.3445 115.484 77.3495 113.717 77.0266 111.361L75.5969 100.926C75.346 99.0956 74.2397 97.4939 72.6174 96.6104L63.3674 91.5723C61.2796 90.435 60.3351 87.9438 61.1438 85.708L64.7268 75.8027C65.355 74.0657 65.1197 72.1338 64.094 70.5977L58.2454 61.8379C56.925 59.8606 57.246 57.2152 59.0012 55.6113L66.7766 48.5059C68.1403 47.2597 68.8304 45.4396 68.636 43.6025L67.5276 33.1289C67.2774 30.7645 68.7915 28.5713 71.0911 27.9668L81.2776 25.2891C83.0642 24.8194 84.5218 23.5285 85.2034 21.8115L89.0891 12.0215C89.9664 9.81167 92.3258 8.57304 94.6428 9.10645L104.907 11.4697C106.708 11.884 108.598 11.4184 109.999 10.2148L117.99 3.35254Z" fill="url(#paint0_linear_9_9)" stroke="#665000"/>
<circle cx="120.695" cy="65.8831" r="46.9363" fill="#785E03"/>
<mask id="mask0_9_9" style="mask-type:alpha" maskUnits="userSpaceOnUse" x="79" y="26" width="89" height="89">
<circle cx="123.264" cy="70.5646" r="44.2566" fill="#C28B37"/>
</mask>
<g mask="url(#mask0_9_9)">
<circle cx="120.695" cy="65.8831" r="46.9363" fill="#8A6B1B"/>
</g>
<circle cx="121.987" cy="65.4525" r="37.8935" fill="#B3881C"/>
<path d="M122.518 37.2566L130.954 54.1316L147.778 56.2351L149.669 56.4714L148.401 57.8933L136.804 70.8972L139.964 89.6003L140.291 91.5417L138.53 90.6609L121.623 82.2068L104.716 90.6609L102.952 91.5437L103.283 89.5984L106.471 70.8972L94.8468 57.8943L93.5753 56.4714L95.4679 56.2351L112.29 54.1316L120.729 37.2566L121.623 35.4675L122.518 37.2566Z" fill="url(#paint1_linear_9_9)" stroke="#AE8620" stroke-width="2"/>
<path d="M59.1179 123.154L59.1179 177.411L4.00004 177.411L20.176 150.282L4.00004 123.154L59.1179 123.154Z" fill="#983535"/>
<path d="M179.688 123.154L179.688 177.411L234.806 177.411L218.63 150.282L234.806 123.154L179.688 123.154Z" fill="#983535"/>
<path d="M43.616 137.795L59.1179 123.154V189.468H43.616V137.795Z" fill="#752727"/>
<path d="M195.19 138.656L179.688 123.154V189.468H195.19V138.656Z" fill="#752727"/>
<rect x="43.616" y="138.656" width="151.574" height="50.8118" fill="#CE4444"/>
</g>
<defs>
<filter id="filter0_d_9_9" x="0" y="1.69057" width="238.806" height="195.777" filterUnits="userSpaceOnUse" color-interpolation-filters="sRGB">
<feFlood flood-opacity="0" result="BackgroundImageFix"/>
<feColorMatrix in="SourceAlpha" type="matrix" values="0 0 0 0 0 0 0 0 0 0 0 0 0 0 0 0 0 0 127 0" result="hardAlpha"/>
<feOffset dy="4"/>
<feGaussianBlur stdDeviation="2"/>
<feComposite in2="hardAlpha" operator="out"/>
<feColorMatrix type="matrix" values="0 0 0 0 0 0 0 0 0 0 0 0 0 0 0 0 0 0 0.25 0"/>
<feBlend mode="normal" in2="BackgroundImageFix" result="effect1_dropShadow_9_9"/>
<feBlend mode="normal" in="SourceGraphic" in2="effect1_dropShadow_9_9" result="shape"/>
</filter>
<linearGradient id="paint0_linear_9_9" x1="121.125" y1="0" x2="121.125" y2="132.627" gradientUnits="userSpaceOnUse">
<stop stop-color="#FFE175"/>
<stop offset="1" stop-color="#FFD12E"/>
</linearGradient>
<linearGradient id="paint1_linear_9_9" x1="121.623" y1="37.7038" x2="121.623" y2="89.7666" gradientUnits="userSpaceOnUse">
<stop stop-color="white"/>
<stop offset="1" stop-color="#FFE86D"/>
</linearGradient>
</defs>
</svg>
